<svg xmlns="http://www.w3.org/2000/svg">
	<symbol id="close" viewBox="0 0 329 329" fill="currentColor">
		<path d="m194.800781 164.769531 128.210938-128.214843c8.34375-8.339844 8.34375-21.824219 0-30.164063-8.339844-8.339844-21.824219-8.339844-30.164063 0l-128.214844 128.214844-128.210937-128.214844c-8.34375-8.339844-21.824219-8.339844-30.164063 0-8.34375 8.339844-8.34375 21.824219 0 30.164063l128.210938 128.214843-128.210938 128.214844c-8.34375 8.339844-8.34375 21.824219 0 30.164063 4.15625 4.160156 9.621094 6.25 15.082032 6.25 5.460937 0 10.921875-2.089844 15.082031-6.25l128.210937-128.214844 128.214844 128.214844c4.160156 4.160156 9.621094 6.25 15.082032 6.25 5.460937 0 10.921874-2.089844 15.082031-6.25 8.34375-8.339844 8.34375-21.824219 0-30.164063zm0 0"/>
	</symbol>
	<symbol id="pen" viewBox="0 0 512 512" fill="currentColor">
		<path d="M493.26 56.26l-37.51-37.51C443.25 6.25 426.87 0 410.49 0s-32.76 6.25-45.25 18.74l-74.49 74.49L256 127.98 12.85 371.12.15 485.34C-1.45 499.72 9.88 512 23.95 512c.89 0 1.79-.05 2.69-.15l114.14-12.61L384.02 256l34.74-34.74 74.49-74.49c25-25 25-65.52.01-90.51zM118.75 453.39l-67.58 7.46 7.53-67.69 231.24-231.24 31.02-31.02 60.14 60.14-31.02 31.02-231.33 231.33zm340.56-340.57l-44.28 44.28-60.13-60.14 44.28-44.28c4.08-4.08 8.84-4.69 11.31-4.69s7.24.61 11.31 4.69l37.51 37.51c6.24 6.25 6.24 16.4 0 22.63z"/>
	</symbol>
	<symbol id="trash" viewBox="0 0 512 512" fill="currentColor">
		<path d="M381.6 80l-34-56.7C338.9 8.8 323.3 0 306.4 0H205.6c-16.9 0-32.5 8.8-41.2 23.3l-34 56.7H40c-13.3 0-24 10.7-24 24v12c0 6.6 5.4 12 12 12h16.4L76 468.4c2.3 24.7 23 43.6 47.8 43.6h264.5c24.8 0 45.5-18.9 47.8-43.6L467.6 128H484c6.6 0 12-5.4 12-12v-12c0-13.3-10.7-24-24-24h-90.4zm-176-32h100.8l19.2 32H186.4l19.2-32zm182.6 416H123.8L92.6 128h326.7l-31.1 336z" />
	</symbol>
</svg>